<svg width="9" height="16" viewBox="0 0 9 16" fill="none" xmlns="http://www.w3.org/2000/svg">
<path d="M8.12158 8.13184C8.12158 7.92432 8.03857 7.7334 7.88086 7.58398L1.30664 1.14258C1.15723 1.00146 0.974609 0.926758 0.758789 0.926758C0.335449 0.926758 0.00341797 1.25049 0.00341797 1.68213C0.00341797 1.88965 0.0864258 2.08057 0.219238 2.22168L6.26221 8.13184L0.219238 14.042C0.0864258 14.1831 0.00341797 14.3657 0.00341797 14.5815C0.00341797 15.0132 0.335449 15.3369 0.758789 15.3369C0.974609 15.3369 1.15723 15.2622 1.30664 15.1128L7.88086 8.67969C8.03857 8.52197 8.12158 8.33936 8.12158 8.13184Z" fill="black" fill-opacity="0.26"/>
</svg>
