<svg width="10" height="15" viewBox="0 0 10 15" fill="none" xmlns="http://www.w3.org/2000/svg">
<path d="M0.886719 7.38184C0.886719 7.58936 0.961426 7.77197 1.11914 7.92969L7.70166 14.3628C7.84277 14.5122 8.02539 14.5869 8.24121 14.5869C8.67285 14.5869 9.00488 14.2632 9.00488 13.8315C9.00488 13.6157 8.91357 13.4331 8.78076 13.292L2.73779 7.38184L8.78076 1.47168C8.91357 1.33057 9.00488 1.13965 9.00488 0.932129C9.00488 0.500488 8.67285 0.176758 8.24121 0.176758C8.02539 0.176758 7.84277 0.251465 7.70166 0.392578L1.11914 6.83398C0.961426 6.9834 0.886719 7.17432 0.886719 7.38184Z" fill="black" fill-opacity="0.26"/>
</svg>
