<svg width="16" height="16" viewBox="0 0 16 16" fill="none" xmlns="http://www.w3.org/2000/svg">
<path d="M8.40674 15.3369C8.62256 15.3369 8.80518 15.2539 8.94629 15.1128L15.5205 8.68799C15.6782 8.53027 15.7695 8.33936 15.7695 8.13184C15.7695 7.91602 15.6782 7.7085 15.5205 7.57568L8.94629 1.14258C8.79688 1.00146 8.62256 0.918457 8.40674 0.918457C7.9751 0.918457 7.64307 1.25049 7.64307 1.68213C7.64307 1.88135 7.73438 2.08057 7.86719 2.22168L13.9102 8.13184L7.86719 14.042C7.73438 14.1831 7.64307 14.374 7.64307 14.5815C7.64307 15.0132 7.9751 15.3369 8.40674 15.3369ZM0.98584 15.3369C1.20166 15.3369 1.38428 15.2539 1.53369 15.1128L8.10791 8.68799C8.26562 8.53027 8.34863 8.33936 8.34863 8.13184C8.34863 7.91602 8.26562 7.7085 8.10791 7.57568L1.52539 1.14258C1.38428 1.00146 1.20166 0.918457 0.98584 0.918457C0.554199 0.918457 0.230469 1.25049 0.230469 1.68213C0.230469 1.88135 0.313477 2.08057 0.446289 2.22168L6.48926 8.13184L0.446289 14.042C0.313477 14.1831 0.230469 14.374 0.230469 14.5815C0.230469 15.0132 0.554199 15.3369 0.98584 15.3369Z" fill="black" fill-opacity="0.5"/>
</svg>
