<svg width="20" height="20" viewBox="0 0 20 20" fill="none" xmlns="http://www.w3.org/2000/svg">
<path d="M10.3125 13.0146C10.6694 13.0146 10.9683 12.7158 10.9683 12.3672V3.84229L10.9185 2.59717L11.4829 3.18652L12.7363 4.53125C12.8525 4.66406 13.0269 4.73047 13.1846 4.73047C13.5332 4.73047 13.7905 4.48145 13.7905 4.14111C13.7905 3.9668 13.7241 3.83398 13.5996 3.70947L10.7939 1.00342C10.6279 0.837402 10.4785 0.779297 10.3125 0.779297C10.1465 0.779297 9.99707 0.837402 9.83105 1.00342L7.02539 3.70947C6.90088 3.83398 6.82617 3.9668 6.82617 4.14111C6.82617 4.48145 7.0835 4.73047 7.42383 4.73047C7.58984 4.73047 7.76416 4.66406 7.88037 4.53125L9.14209 3.18652L9.70654 2.59717L9.64844 3.84229V12.3672C9.64844 12.7158 9.95557 13.0146 10.3125 13.0146ZM5.54785 19.5142H15.0688C16.8037 19.5142 17.6753 18.6509 17.6753 16.9409V8.65674C17.6753 6.94678 16.8037 6.0835 15.0688 6.0835H12.7529V7.41992H15.0439C15.8657 7.41992 16.3389 7.86816 16.3389 8.73145V16.8662C16.3389 17.7295 15.8657 18.1777 15.0439 18.1777H5.56445C4.73438 18.1777 4.27783 17.7295 4.27783 16.8662V8.73145C4.27783 7.86816 4.73438 7.41992 5.56445 7.41992H7.86377V6.0835H5.54785C3.81299 6.0835 2.94141 6.94678 2.94141 8.65674V16.9409C2.94141 18.6509 3.81299 19.5142 5.54785 19.5142Z" fill="black" fill-opacity="0.26"/>
</svg>
