<svg width="32" height="20" viewBox="0 0 32 20" fill="none" xmlns="http://www.w3.org/2000/svg">
<path d="M3.94043 9.45947H7.72559C8.77979 9.45947 9.31104 8.92822 9.31104 7.83252V4.12207C9.31104 3.02637 8.77979 2.50342 7.72559 2.50342H3.94043C2.88623 2.50342 2.35498 3.02637 2.35498 4.12207V7.83252C2.35498 8.92822 2.88623 9.45947 3.94043 9.45947ZM12.2744 9.45947H16.0513C17.1055 9.45947 17.6367 8.92822 17.6367 7.83252V4.12207C17.6367 3.02637 17.1055 2.50342 16.0513 2.50342H12.2744C11.2119 2.50342 10.6807 3.02637 10.6807 4.12207V7.83252C10.6807 8.92822 11.2119 9.45947 12.2744 9.45947ZM3.95703 8.28906C3.6665 8.28906 3.52539 8.13965 3.52539 7.83252V4.12207C3.52539 3.82324 3.6665 3.67383 3.95703 3.67383H7.70068C7.99121 3.67383 8.14062 3.82324 8.14062 4.12207V7.83252C8.14062 8.13965 7.99121 8.28906 7.70068 8.28906H3.95703ZM12.291 8.28906C11.9922 8.28906 11.8511 8.13965 11.8511 7.83252V4.12207C11.8511 3.82324 11.9922 3.67383 12.291 3.67383H16.0347C16.3252 3.67383 16.4663 3.82324 16.4663 4.12207V7.83252C16.4663 8.13965 16.3252 8.28906 16.0347 8.28906H12.291ZM3.94043 17.7852H7.72559C8.77979 17.7852 9.31104 17.2622 9.31104 16.1665V12.4478C9.31104 11.3604 8.77979 10.8291 7.72559 10.8291H3.94043C2.88623 10.8291 2.35498 11.3604 2.35498 12.4478V16.1665C2.35498 17.2622 2.88623 17.7852 3.94043 17.7852ZM12.2744 17.7852H16.0513C17.1055 17.7852 17.6367 17.2622 17.6367 16.1665V12.4478C17.6367 11.3604 17.1055 10.8291 16.0513 10.8291H12.2744C11.2119 10.8291 10.6807 11.3604 10.6807 12.4478V16.1665C10.6807 17.2622 11.2119 17.7852 12.2744 17.7852ZM3.95703 16.6147C3.6665 16.6147 3.52539 16.4653 3.52539 16.1665V12.4561C3.52539 12.1489 3.6665 11.9995 3.95703 11.9995H7.70068C7.99121 11.9995 8.14062 12.1489 8.14062 12.4561V16.1665C8.14062 16.4653 7.99121 16.6147 7.70068 16.6147H3.95703ZM12.291 16.6147C11.9922 16.6147 11.8511 16.4653 11.8511 16.1665V12.4561C11.8511 12.1489 11.9922 11.9995 12.291 11.9995H16.0347C16.3252 11.9995 16.4663 12.1489 16.4663 12.4561V16.1665C16.4663 16.4653 16.3252 16.6147 16.0347 16.6147H12.291Z" fill="black" fill-opacity="0.5"/>
<path d="M28.1211 11.875C28.2891 11.875 28.4336 11.8086 28.5625 11.6797L31.4883 8.67969C31.5898 8.57812 31.6445 8.45312 31.6445 8.30469C31.6445 8 31.4023 7.75781 31.1016 7.75781C30.9531 7.75781 30.8125 7.81641 30.7031 7.92578L28.125 10.582L25.543 7.92578C25.4336 7.82031 25.2969 7.75781 25.1445 7.75781C24.8438 7.75781 24.6016 8 24.6016 8.30469C24.6016 8.45312 24.6562 8.57812 24.7578 8.68359L27.6836 11.6797C27.8203 11.8125 27.957 11.875 28.1211 11.875Z" fill="black" fill-opacity="0.5"/>
</svg>
