<svg width="32" height="20" viewBox="0 0 32 20" fill="none" xmlns="http://www.w3.org/2000/svg">
<path d="M10 18.5986C14.6318 18.5986 18.4668 14.7554 18.4668 10.1318C18.4668 5.5 14.6235 1.66504 9.9917 1.66504C5.36816 1.66504 1.5332 5.5 1.5332 10.1318C1.5332 14.7554 5.37646 18.5986 10 18.5986ZM10 17.1875C6.08203 17.1875 2.95264 14.0498 2.95264 10.1318C2.95264 6.21387 6.07373 3.07617 9.9917 3.07617C13.9097 3.07617 17.0474 6.21387 17.0557 10.1318C17.064 14.0498 13.918 17.1875 10 17.1875ZM6.12354 11.3438C6.7876 11.3438 7.32715 10.7959 7.32715 10.1318C7.32715 9.46777 6.7793 8.91992 6.12354 8.91992C5.45117 8.91992 4.91162 9.46777 4.91162 10.1318C4.91162 10.7959 5.45117 11.3438 6.12354 11.3438ZM9.9917 11.3438C10.6558 11.3438 11.2036 10.7959 11.2036 10.1318C11.2036 9.46777 10.6558 8.91992 9.9917 8.91992C9.32764 8.91992 8.77979 9.46777 8.77979 10.1318C8.77979 10.7959 9.32764 11.3438 9.9917 11.3438ZM13.8682 11.3438C14.5322 11.3438 15.0718 10.7959 15.0718 10.1318C15.0718 9.46777 14.5322 8.91992 13.8682 8.91992C13.1958 8.91992 12.6562 9.46777 12.6562 10.1318C12.6562 10.7959 13.1958 11.3438 13.8682 11.3438Z" fill="black" fill-opacity="0.5"/>
<path d="M28.1211 11.875C28.2891 11.875 28.4336 11.8086 28.5625 11.6797L31.4883 8.67969C31.5898 8.57812 31.6445 8.45312 31.6445 8.30469C31.6445 8 31.4023 7.75781 31.1016 7.75781C30.9531 7.75781 30.8125 7.81641 30.7031 7.92578L28.125 10.582L25.543 7.92578C25.4336 7.82031 25.2969 7.75781 25.1445 7.75781C24.8438 7.75781 24.6016 8 24.6016 8.30469C24.6016 8.45312 24.6562 8.57812 24.7578 8.68359L27.6836 11.6797C27.8203 11.8125 27.957 11.875 28.1211 11.875Z" fill="black" fill-opacity="0.5"/>
</svg>
