<svg width="32" height="20" viewBox="0 0 32 20" fill="none" xmlns="http://www.w3.org/2000/svg">
<path d="M1.62451 2.61133H18.3672C18.7075 2.61133 18.9482 2.3457 18.9482 1.98047C18.9482 1.61523 18.7075 1.35791 18.3672 1.35791H1.62451C1.27588 1.35791 1.04346 1.61523 1.04346 1.98047C1.04346 2.3457 1.27588 2.61133 1.62451 2.61133ZM2.62891 9.31836H4.50488C5.55908 9.31836 6.09033 8.78711 6.09033 7.69141V5.89014C6.09033 4.79443 5.55908 4.27148 4.50488 4.27148H2.62891C1.57471 4.27148 1.04346 4.79443 1.04346 5.89014V7.69141C1.04346 8.78711 1.57471 9.31836 2.62891 9.31836ZM9.05371 9.31836H10.9297C11.9839 9.31836 12.5151 8.78711 12.5151 7.69141V5.89014C12.5151 4.79443 11.9839 4.27148 10.9297 4.27148H9.05371C7.99951 4.27148 7.46826 4.79443 7.46826 5.89014V7.69141C7.46826 8.78711 7.99951 9.31836 9.05371 9.31836ZM15.4785 9.31836H17.3462C18.4004 9.31836 18.9316 8.78711 18.9316 7.69141V5.89014C18.9316 4.79443 18.4004 4.27148 17.3462 4.27148H15.4785C14.416 4.27148 13.8848 4.79443 13.8848 5.89014V7.69141C13.8848 8.78711 14.416 9.31836 15.4785 9.31836ZM2.64551 8.14795C2.35498 8.14795 2.21387 7.99854 2.21387 7.69141V5.88184C2.21387 5.59131 2.35498 5.44189 2.64551 5.44189H4.47998C4.77051 5.44189 4.91992 5.59131 4.91992 5.88184V7.69141C4.91992 7.99854 4.77051 8.14795 4.47998 8.14795H2.64551ZM9.07031 8.14795C8.77979 8.14795 8.63867 7.99854 8.63867 7.69141V5.88184C8.63867 5.59131 8.77979 5.44189 9.07031 5.44189H10.9131C11.2036 5.44189 11.3447 5.59131 11.3447 5.88184V7.69141C11.3447 7.99854 11.2036 8.14795 10.9131 8.14795H9.07031ZM15.4868 8.14795C15.1963 8.14795 15.0552 7.99854 15.0552 7.69141V5.88184C15.0552 5.59131 15.1963 5.44189 15.4868 5.44189H17.3296C17.6201 5.44189 17.7612 5.59131 17.7612 5.88184V7.69141C17.7612 7.99854 17.6201 8.14795 17.3296 8.14795H15.4868ZM1.62451 12.1406H18.3672C18.7075 12.1406 18.9482 11.8833 18.9482 11.5181C18.9482 11.1528 18.7075 10.8872 18.3672 10.8872H1.62451C1.27588 10.8872 1.04346 11.1528 1.04346 11.5181C1.04346 11.8833 1.27588 12.1406 1.62451 12.1406ZM2.63721 18.8477H4.51318C5.56738 18.8477 6.09863 18.3247 6.09863 17.229V15.4194C6.09863 14.3237 5.56738 13.8008 4.51318 13.8008H2.63721C1.58301 13.8008 1.05176 14.3237 1.05176 15.4194V17.229C1.05176 18.3247 1.58301 18.8477 2.63721 18.8477ZM9.06201 18.8477H10.938C11.9922 18.8477 12.5234 18.3247 12.5234 17.229V15.4194C12.5234 14.3237 11.9922 13.8008 10.938 13.8008H9.06201C8.00781 13.8008 7.47656 14.3237 7.47656 15.4194V17.229C7.47656 18.3247 8.00781 18.8477 9.06201 18.8477ZM15.4868 18.8477H17.3545C18.417 18.8477 18.9482 18.3247 18.9482 17.229V15.4194C18.9482 14.3237 18.417 13.8008 17.3545 13.8008H15.4868C14.4326 13.8008 13.9014 14.3237 13.9014 15.4194V17.229C13.9014 18.3247 14.4326 18.8477 15.4868 18.8477ZM2.65381 17.6772C2.36328 17.6772 2.22217 17.5278 2.22217 17.229V15.4277C2.22217 15.1206 2.36328 14.9712 2.65381 14.9712H4.48828C4.77881 14.9712 4.92822 15.1206 4.92822 15.4277V17.229C4.92822 17.5278 4.77881 17.6772 4.48828 17.6772H2.65381ZM9.08691 17.6772C8.78809 17.6772 8.64697 17.5278 8.64697 17.229V15.4277C8.64697 15.1206 8.78809 14.9712 9.08691 14.9712H10.9214C11.2119 14.9712 11.353 15.1206 11.353 15.4277V17.229C11.353 17.5278 11.2119 17.6772 10.9214 17.6772H9.08691ZM15.4951 17.6772C15.2129 17.6772 15.0718 17.5278 15.0718 17.229V15.4277C15.0718 15.1206 15.2129 14.9712 15.4951 14.9712H17.3379C17.6367 14.9712 17.7778 15.1206 17.7778 15.4277V17.229C17.7778 17.5278 17.6367 17.6772 17.3379 17.6772H15.4951Z" fill="black" fill-opacity="0.5"/>
<path d="M28.1211 11.875C28.2891 11.875 28.4336 11.8086 28.5625 11.6797L31.4883 8.67969C31.5898 8.57812 31.6445 8.45312 31.6445 8.30469C31.6445 8 31.4023 7.75781 31.1016 7.75781C30.9531 7.75781 30.8125 7.81641 30.7031 7.92578L28.125 10.582L25.543 7.92578C25.4336 7.82031 25.2969 7.75781 25.1445 7.75781C24.8438 7.75781 24.6016 8 24.6016 8.30469C24.6016 8.45312 24.6562 8.57812 24.7578 8.68359L27.6836 11.6797C27.8203 11.8125 27.957 11.875 28.1211 11.875Z" fill="black" fill-opacity="0.5"/>
</svg>
