<svg width="20" height="20" viewBox="0 0 20 20" fill="none" xmlns="http://www.w3.org/2000/svg">
<path d="M8.87646 15.0127C10.2627 15.0127 11.541 14.5645 12.5869 13.8174L16.5215 17.752C16.7041 17.9346 16.9448 18.0259 17.2021 18.0259C17.7417 18.0259 18.1235 17.6108 18.1235 17.0796C18.1235 16.8306 18.0405 16.5898 17.8579 16.4155L13.9482 12.4976C14.77 11.4185 15.2598 10.082 15.2598 8.62939C15.2598 5.11816 12.3877 2.24609 8.87646 2.24609C5.37354 2.24609 2.49316 5.10986 2.49316 8.62939C2.49316 12.1406 5.36523 15.0127 8.87646 15.0127ZM8.87646 13.6348C6.13721 13.6348 3.87109 11.3687 3.87109 8.62939C3.87109 5.89014 6.13721 3.62402 8.87646 3.62402C11.6157 3.62402 13.8818 5.89014 13.8818 8.62939C13.8818 11.3687 11.6157 13.6348 8.87646 13.6348Z" fill="black" fill-opacity="0.5"/>
</svg>
