<svg width="20" height="21" viewBox="0 0 20 21" fill="none" xmlns="http://www.w3.org/2000/svg">
<path d="M10.8271 18.9307L18.9204 10.8208C19.543 10.1982 19.5845 9.84131 19.5845 8.96973V5.81543C19.5845 4.93555 19.377 4.66162 18.7461 4.03076L16.8369 2.12158C16.2144 1.49902 15.9404 1.2832 15.0605 1.2832H11.8979C11.0264 1.2832 10.6777 1.32471 10.0552 1.94727L1.93701 10.0488C0.75 11.2358 0.725098 12.4644 1.94531 13.6763L7.19971 18.9224C8.41992 20.1343 9.64014 20.1177 10.8271 18.9307ZM9.93066 17.9263C9.33301 18.5239 8.70215 18.5322 8.09619 17.918L2.94141 12.7715C2.33545 12.1655 2.34375 11.5264 2.93311 10.937L10.9932 2.89355C11.1592 2.72754 11.3335 2.61963 11.6157 2.61963H15.1104C15.3677 2.61963 15.542 2.71924 15.7163 2.89355L17.9824 5.15137C18.1567 5.32568 18.248 5.5 18.248 5.75732V9.26025C18.248 9.53418 18.1484 9.7085 17.9824 9.87451L9.93066 17.9263ZM14.0894 7.92383C14.7368 7.92383 15.2266 7.41748 15.2266 6.78662C15.2266 6.14746 14.7368 5.64941 14.0894 5.64941C13.4336 5.64941 12.9521 6.14746 12.9521 6.78662C12.9521 7.41748 13.4336 7.92383 14.0894 7.92383Z" fill="black" fill-opacity="0.26"/>
</svg>
